# xmcd
#
# Track frame offsets:
#  182
#  12067
#  24097
#  40050
#  50887
#  69095
#  82022
#  93012
#  106977
#  120420
#
# Disc length: 1799 seconds
#
# Revision: 0
# Processed by: cddbd v1.4PL0 Copyright (c) Steve Scherf et al.
# Submitted via: AltoMP3_Maker 3.0
#
DISCID=6907050a
DTITLE=Joni Harms - Cowgirl Dreams
DYEAR=1998
DGENRE=Country
TTITLE0=Belle Starr
TTITLE1=Two-Steppin' Texas Blue
TTITLE2=When I Get Over You
TTITLE3=Old-Fashioned Girl
TTITLE4=Blue Montana Moon
TTITLE5=Swing
TTITLE6=That's the Way I Feel About You
TTITLE7=A Woman Knows
TTITLE8=Catalog Dreams
TTITLE9=Long Hard Ride
EXTD=
EXTT0=
EXTT1=
EXTT2=
EXTT3=
EXTT4=
EXTT5=
EXTT6=
EXTT7=
EXTT8=
EXTT9=
PLAYORDER=
